<svg width="15" height="15" viewBox="0 0 15 15" fill="none" xmlns="http://www.w3.org/2000/svg">
<g id="SVG" clip-path="url(#clip0_24_25)">
<path id="Vector" d="M14.0037 4.57241C13.851 3.99758 13.4012 3.54487 12.8301 3.39123C11.7949 3.11206 7.644 3.11206 7.644 3.11206C7.644 3.11206 3.4931 3.11206 2.4579 3.39123C1.88679 3.54489 1.437 3.99758 1.28433 4.57241C1.00696 5.61432 1.00696 7.78816 1.00696 7.78816C1.00696 7.78816 1.00696 9.962 1.28433 11.0039C1.437 11.5787 1.88679 12.0126 2.4579 12.1662C3.4931 12.4454 7.644 12.4454 7.644 12.4454C7.644 12.4454 11.7949 12.4454 12.8301 12.1662C13.4012 12.0126 13.851 11.5787 14.0037 11.0039C14.281 9.962 14.281 7.78816 14.281 7.78816C14.281 7.78816 14.281 5.61432 14.0037 4.57241ZM6.28642 9.76184V5.81447L9.75577 7.78821L6.28642 9.76184Z" fill="white"/>
</g>
<defs>
<clipPath id="clip0_24_25">
<rect width="14" height="14" fill="white" transform="translate(0.644043 0.778687)"/>
</clipPath>
</defs>
</svg>
